<svg xmlns="http://www.w3.org/2000/svg" viewBox="0 0 256 256" fill="none">
  <rect width="256" height="256" rx="48" fill="#1a1a2e"/>
  <rect x="20" y="20" width="216" height="216" rx="36" fill="#16213e"/>
  <!-- 라벨 용지 -->
  <rect x="48" y="56" width="160" height="100" rx="8" fill="#e0e0e0"/>
  <!-- 상품명 -->
  <rect x="64" y="68" width="100" height="10" rx="2" fill="#333"/>
  <!-- 가격 -->
  <rect x="64" y="84" width="60" height="8" rx="2" fill="#666"/>
  <!-- 바코드 줄무늬 -->
  <rect x="64" y="100" width="3" height="36" fill="#222"/>
  <rect x="70" y="100" width="2" height="36" fill="#222"/>
  <rect x="75" y="100" width="4" height="36" fill="#222"/>
  <rect x="82" y="100" width="2" height="36" fill="#222"/>
  <rect x="87" y="100" width="3" height="36" fill="#222"/>
  <rect x="93" y="100" width="2" height="36" fill="#222"/>
  <rect x="98" y="100" width="4" height="36" fill="#222"/>
  <rect x="105" y="100" width="2" height="36" fill="#222"/>
  <rect x="110" y="100" width="3" height="36" fill="#222"/>
  <rect x="116" y="100" width="2" height="36" fill="#222"/>
  <rect x="121" y="100" width="4" height="36" fill="#222"/>
  <rect x="128" y="100" width="2" height="36" fill="#222"/>
  <rect x="133" y="100" width="3" height="36" fill="#222"/>
  <rect x="139" y="100" width="2" height="36" fill="#222"/>
  <rect x="144" y="100" width="4" height="36" fill="#222"/>
  <!-- 바코드 숫자 -->
  <rect x="64" y="140" width="84" height="6" rx="1" fill="#888"/>
  <!-- Zebra 악센트 스트라이프 -->
  <rect x="48" y="172" width="160" height="6" rx="2" fill="#f5a623"/>
  <rect x="48" y="184" width="120" height="6" rx="2" fill="#f5a623" opacity="0.6"/>
  <rect x="48" y="196" width="80" height="6" rx="2" fill="#f5a623" opacity="0.3"/>
</svg>
